<?xml version="1.0" encoding="iso-8859-1"?>
<!-- Generator: Adobe Illustrator 16.0.0, SVG Export Plug-In . SVG Version: 6.00 Build 0)  -->
<!DOCTYPE svg PUBLIC "-//W3C//DTD SVG 1.1//EN" "http://www.w3.org/Graphics/SVG/1.1/DTD/svg11.dtd">
<svg version="1.1" id="Capa_1" xmlns="http://www.w3.org/2000/svg" xmlns:xlink="http://www.w3.org/1999/xlink" x="0px" y="0px"
	 width="792px" height="792px" viewBox="0 0 792 792" style="enable-background:new 0 0 792 792;" xml:space="preserve">
<g>
	<path d="M557.75,792c0,0,71.889,0,71.889-71.997V71.997C629.639,0,557.75,0,557.75,0h-323.5c0,0-71.889,0-71.889,71.997v648.006
		C162.361,792,234.25,792,234.25,792H557.75z M396,762.022c-19.841,0-35.944-16.104-35.944-35.944
		c0-19.842,16.103-35.944,35.944-35.944s35.945,16.103,35.945,35.944C431.945,745.919,415.842,762.022,396,762.022z M306.139,43.888
		c0-4.457,3.559-7.944,7.944-7.944h163.8c4.385,0,7.979,3.559,7.979,7.944v2.121c0,4.493-3.559,7.944-7.943,7.944H314.083
		c-4.349,0-7.944-3.559-7.944-7.944V43.888z M198.306,89.861h395.389v575.111H198.306V89.861z"/>
</g>
<g>
</g>
<g>
</g>
<g>
</g>
<g>
</g>
<g>
</g>
<g>
</g>
<g>
</g>
<g>
</g>
<g>
</g>
<g>
</g>
<g>
</g>
<g>
</g>
<g>
</g>
<g>
</g>
<g>
</g>
</svg>
