<?xml version="1.0" encoding="UTF-8"?>
<svg version="1.1" viewBox="0 0 2500 2500" xmlns="http://www.w3.org/2000/svg">
 <g transform="translate(0 1447.6)">
  <path transform="translate(0 -1447.6)" d="m956.29 206.29c-78.092 0-140.96 69.495-140.96 155.82v158.63c-5.8674 0.73803-10.381 5.7112-10.381 11.785v354.42c0 6.0739 4.5135 11.045 10.381 11.783v1028c0 86.324 62.869 155.82 140.96 155.82h720.04c78.092 0 140.96-69.497 140.96-155.82v-1154.2c6.5553-0.0115 11.822-1.7282 11.822-3.8594v-115.07c0-2.1312-5.2669-3.8459-11.822-3.8574v-287.64c0-86.324-62.869-155.82-140.96-155.82h-720.04zm659.98 54.203a19.646 19.646 0 0 1 19.646 19.646 19.646 19.646 0 0 1 -19.646 19.646 19.646 19.646 0 0 1 -19.646 -19.646 19.646 19.646 0 0 1 19.646 -19.646zm-69.646 9.6465a10 10 0 0 1 10 10 10 10 0 0 1 -10 10 10 10 0 0 1 -10 -10 10 10 0 0 1 10 -10zm-458.68 3.3633a12.284 12.284 0 0 1 12.283 12.283 12.284 12.284 0 0 1 -12.283 12.285 12.284 12.284 0 0 1 -12.285 -12.285 12.284 12.284 0 0 1 12.285 -12.283zm83.477 6.4609h289.79c19.047 0 34.381 2.1911 34.381 4.9121s-15.334 4.9102-34.381 4.9102h-289.79c-19.047 0-34.381-2.1891-34.381-4.9102s15.334-4.9121 34.381-4.9121zm-151.58 88.408h592.94c95.613 0 172.59 0.88648 172.59 1.9863v1572.7c0 1.0998-76.973 1.9843-172.59 1.9843h-592.94c-95.613 0-172.59-0.8845-172.59-1.9843v-1572.7c0-1.0998 76.973-1.9863 172.59-1.9863zm188.42 1606.1h216.11c19.047 0 34.381 15.336 34.381 34.383s-15.334 34.381-34.381 34.381h-216.11c-19.047 0-34.381-15.334-34.381-34.381s15.334-34.383 34.381-34.383z" fill="#1a1a1a"/>
  <circle cx="1704.1" cy="-1145" r="7.5" fill="#fff"/>
 </g>
</svg>
